<svg xmlns="http://www.w3.org/2000/svg" width="682.9" height="633.83" viewBox="0 0 682.9 633.83">
  <defs>
    <style>
      .cls-1 {
        fill: #010101;
      }
    </style>
  </defs>
  <title>techlahoma</title>
  <g id="Layer_2" data-name="Layer 2">
    <g id="Layer_1-2" data-name="Layer 1">
      <path class="cls-1" d="M71.53,189.8,75,186.1v-14l-3.48-3.37h-14L54,172.13v14l3.61,3.7ZM15,262.55l-4.58,3.94v5.23l6.44,6.71H54L0,224.36l.07,37.1,5.52,5.45v-2.68l7.65-6.48h8.23v4.8ZM61,141.43H84.32L96.43,129.1V50.33l-25.11,25v26L61,112.21Zm204.8,242.35V339.1h47l13.6-13.67V68.79h40.28l14-14V14.94L328.63,0H218.49L101.23,93.68v37.39L86.29,146.23H55.44V110.11L66.89,98.38V93.79H59.72L.05,154.21v63.11L23,240.37V193.72l17.29-14.26h8.92v-9.32L55.57,164H73.52l6.29,6.18v18l-6.29,6.51H55.57l-6.41-6.51v-3.46H42.09l-14,11.51V245.5l70.2,70.14L130,284l100.48,99.83ZM134.14,169.12H107.88v-4.79h24.3l11.87-11.53-2.42-6.57H107.88v-4.8H145l4.63,12.64Zm365.57,20.32,3.29-3.83v-14l-3.29-3.25h-14L482,171.64v14l3.79,3.83Zm176.52,56.48h.26V139.54L652.24,116.6H612.06l-8.78-17.8L496.67,79.89,386.28,40.39v16.9L369.69,73.82H332v91.24h15.83l29.44-29.54h56.67v-6.74l6.52-6.18h18l6.17,6.18v18l-6.17,6.51h-18l-6.52-6.51v-6.42H379.27l-29.45,29.54H332V195h35.7l18.46-18.46h91v-6.85l6.6-6.08H501.7l6.1,6.08v18l-6.1,6.62H483.75l-6.6-6.62v-6.3h-89L369.7,199.78H332v128.1l-16.17,16.25h-44.4v44.68h-26l9.08,52.8-14.27,39.1h45.27v-129l13.68,8.08L313,443l-16.4,37.68h46.64V311.58H492l6.41,27.72L524.75,359,539,441.61l-16.4,39.1H570V345.43L591.15,359l12,83.37-14.26,38.39h45.79V341.38l-34.22-45.67,44.94-111.48-24-48.73H644l12.62,12.31V246l-7,12,6.35,37.67h20.29L682.9,258ZM456.42,148.45l3.37-3.71v-14l-3.37-3.37h-14l-3.71,3.37v14l3.71,3.71ZM81.06,633.83h42.3v-14.1H95.16v-31h21.15V574.6H95.16V549.22h28.2v-14.1H81.06ZM15.48,549.22H33.11v84.61h14.1V549.22H64.84v-14.1H15.48Zm620.09-14.1-21.15,98.71h7.9l3.52-17.62h30.32l3.39,17.62h7.89l-21.15-98.71Zm-8.18,74,13.82-65.43,13.4,65.43Zm-126.78-74h-14.1a14.14,14.14,0,0,0-14.11,14.1v70.51a14.14,14.14,0,0,0,14.11,14.1h14.1a14.14,14.14,0,0,0,14.1-14.1V549.22A14.14,14.14,0,0,0,500.61,535.12Zm7.05,84.61a7,7,0,0,1-7.05,7h-14.1a7.07,7.07,0,0,1-7.05-7V549.22a7.07,7.07,0,0,1,7.05-7.05h14.1a7,7,0,0,1,7.05,7.05Zm-222.4-84.61h-7.05v98.71h35.26v-7.05H285.26Zm157.25,43H414.3v-43h-7.05v98.71h7.05V585.18h28.21v48.65h7.05V535.12h-7.05Zm121.7,25.67-18.75-68.68H534.74v98.71h7V546.54L562,619.73h4.51l20.17-73.19v87.29h7.05V535.12H583ZM354.65,535.12l-21.16,98.71h7.9l3.53-17.62h30.32l3.38,17.62h7.9l-21.16-98.71Zm-8.18,74,13.82-65.43,13.39,65.43ZM242.81,574.6H221.66V535.12h-14.1v98.71h14.1V588.71h21.15v45.12h14.11V535.12H242.81Zm-66.28-39.48H155.38a14.14,14.14,0,0,0-14.11,14.1v70.51a14.14,14.14,0,0,0,14.11,14.1h21.15a14.13,14.13,0,0,0,14.1-14.1v-14.1h-14.1v14.1H155.38V549.22h21.15v14.1h14.1v-14.1A14.13,14.13,0,0,0,176.53,535.12Z"/>
    </g>
  </g>
</svg>
