<svg xmlns="http://www.w3.org/2000/svg" viewBox="0 0 400 130.16">
	<title>tulaux-logo-horizontal</title>
	<style>
		#Layer_2 {fill: #FFFFFF;}
	</style>
	<g id="Layer_2" data-name="Layer 2">
		<g id="Layer_1-2" data-name="Layer 1"><path d="M7.1,94.13V55.5H0V49.69H7.1V33.88h7.1V49.69H29V55.5H14.2V92.19l4.2,4.2H29v5.81H15.17Z"/><path d="M38.52,94.13V49.69h7.1V92.3l4.3,4.2h6.13l8.82-8.71V49.69H72v52.5H66.49l-.32-8.71-8.71,8.71H46.59Z"/><path d="M86.5,102.2V28h7.1V102.2Z"/><path d="M106.29,95.1V86.92h7.1v6.24l3.34,3.34H129.1L133,92.62V81l-2.26-2.37H112.64l-6-6V57.33l7.75-7.64h18.29l7.21,7.1v8.07h-7.21V58.62l-3.33-3.34H117.7l-4,4V70.78L116,73h18.08l6.13,6.13V94.45l-7.75,7.75h-19Z"/><path d="M150,94.45V79.07l7.85-7.85h19.58V59.48l-4.2-4.2H162.13l-3.87,3.87V65H151V57.44l7.75-7.75h17.75l8.07,8.07V102.2h-5.38l-.43-8.07-8,8.07H157.72Zm19.9,2L177.41,89V76.7H161.27l-4.2,4.09V92.62l3.87,3.87Z"/><path d="M206.27,112V0h32.26V98.84l5.09,5.09h13.21l5.09-5.09V0h32.26V112l-18.11,18.11H224.38Z"/><path d="M325.68,63.19,304.74,0h34.14l13.2,49,13-49h33L376.23,63.38,400,130.16H365.48l-14.71-50-14.15,50H303Z"/></g>
	</g>
</svg>
