<svg xmlns="http://www.w3.org/2000/svg" viewBox="0 0 277.58 318.05"><defs><style>.cls-1{fill:#fff;}</style></defs><title>logo</title><g id="Layer_2" data-name="Layer 2"><g id="Layer_1-2" data-name="Layer 1"><path class="cls-1" d="M10.14,94.53V39.35H0V31H10.14V8.45H20.29V31H41.5v8.3H20.29V91.76l6,6H41.5v8.3H21.67Z"/><path class="cls-1" d="M55,94.53V31H65.17V91.91l6.15,6h8.76l12.6-12.45V31h10.14v75H95L94.53,93.6,82.08,106.05H66.55Z"/><path class="cls-1" d="M123.57,106.05V0h10.14V106.05Z"/><path class="cls-1" d="M151.85,95.91V84.23H162v8.91l4.77,4.77h17.68L190,92.37V75.77l-3.23-3.38H160.92l-8.61-8.61V42L163.38,31h26.13l10.3,10.14V52.72h-10.3V43.81L184.74,39h-16.6l-5.69,5.69V61.17l3.23,3.23h25.82l8.76,8.76V95L189.2,106.05H162Z"/><path class="cls-1" d="M214.25,95V73l11.22-11.22h28V45l-6-6H231.62l-5.53,5.53v8.3h-10.3V42.11L226.86,31h25.36l11.53,11.53v63.48h-7.69l-.62-11.53-11.37,11.53H225.32Zm28.44,2.92,10.76-10.76V69.63H230.39l-6,5.84V92.37l5.53,5.53Z"/><path class="cls-1" d="M.82,292.18V132.11H46.9V273.32l7.28,7.28H73l7.28-7.28V132.11H126.4V292.18l-25.87,25.87H26.69Z"/><path class="cls-1" d="M171.4,222.38l-29.91-90.28h48.78l18.86,70.07,18.59-70.07h47.16l-31.26,90.55,34,95.4H228.26l-21-71.41L187,318.05h-48Z"/></g></g></svg>