<svg xmlns="http://www.w3.org/2000/svg" viewBox="0 0 423.58 491.58">
	<title>tulaux-logo-vertical</title>
	<style>
		#Layer_2 {fill: #FFFFFF;}
	</style>
	<g id="Layer_2" data-name="Layer 2">
		<g id="Layer_1-2" data-name="Layer 1"><path d="M16.15,150.5V62.65H0V49.43H16.15v-36H32.3v36H66.07V62.65H32.3v83.45l9.54,9.54H66.07v13.21H34.5Z"/><path d="M87.6,150.5V49.43h16.15v96.91l9.79,9.54h13.95l20.07-19.82V49.43h16.15V168.85H151.23L150.5,149l-19.82,19.82H106Z"/><path d="M196.74,168.85V0h16.15V168.85Z"/><path d="M241.77,152.7V134.1h16.15v14.19l7.59,7.59h28.14l8.81-8.81V120.64l-5.14-5.38H256.2l-13.7-13.7V66.81l17.62-17.37h41.6l16.4,16.15V83.94h-16.4V69.74l-7.58-7.59H267.71l-9.06,9.05V97.4l5.14,5.14H304.9l13.95,13.95v34.75l-17.62,17.62H257.92Z"/><path d="M341.11,151.23v-35L359,98.37h44.54V71.7L394,62.16h-25.2L360,71V84.18h-16.4V67.05l17.62-17.62h40.38l18.35,18.35V168.85H407.68l-1-18.35-18.11,18.35H358.73Zm45.27,4.65,17.13-17.13v-27.9H366.81l-9.54,9.3v26.92l8.81,8.81Z"/><path d="M.87,452.07V207.58H71.25V423.26l11.11,11.11h28.81l11.11-11.11V207.58h70.38V452.07l-39.51,39.51H40.39Z"/><path d="M261.41,345.46,215.72,207.58h74.5L319,314.6l28.4-107h72l-47.74,138.3,51.86,145.71H348.26l-32.1-109.07L285.28,491.58H212Z"/></g>
	</g>
</svg>
